<svg width="7" height="14" viewBox="0 0 7 14" fill="none" xmlns="http://www.w3.org/2000/svg">
<path d="M7 0.876392C6.99979 1.10864 6.90624 1.33131 6.73991 1.49543L2.2048 5.97585C2.06753 6.11143 1.95864 6.27239 1.88435 6.44955C1.81006 6.62671 1.77182 6.81659 1.77182 7.00836C1.77182 7.20012 1.81006 7.39 1.88435 7.56716C1.95864 7.74432 2.06753 7.90528 2.2048 8.04086L6.73399 12.5154C6.89551 12.6807 6.98488 12.9019 6.98286 13.1316C6.98084 13.3613 6.88759 13.581 6.72319 13.7434C6.55879 13.9058 6.3364 13.998 6.10392 14C5.87143 14.002 5.64745 13.9137 5.48022 13.7541L0.951027 9.28302C0.34203 8.68018 0 7.86327 0 7.01157C0 6.15986 0.34203 5.34295 0.951027 4.74011L5.48613 0.256772C5.61014 0.134182 5.76817 0.0506874 5.94022 0.0168541C6.11227 -0.0169792 6.29062 0.000369072 6.45269 0.0667038C6.61476 0.133038 6.75327 0.245378 6.85069 0.389508C6.94812 0.533637 7.00008 0.703079 7 0.876392Z" fill="black"/>
</svg>
