<svg width="30" height="30" viewBox="0 0 30 30" fill="none" xmlns="http://www.w3.org/2000/svg">
<path d="M14.4675 0C11.0025 0.122426 7.57226 1.44063 4.84301 3.95447L11.8263 10.9378C14.0098 8.45051 15.0084 4.74766 14.4675 0ZM15.7326 0.00746827C16.2663 4.97743 15.1887 9.05049 12.7158 11.8274L15 14.1115L25.1571 3.95447C22.4803 1.48893 19.1294 0.17282 15.7326 0.00739851V0.00746827ZM3.95448 4.843C1.44056 7.57224 0.122426 11.0025 0 14.4674C4.74767 15.0084 8.45046 14.0098 10.9379 11.8263L3.95448 4.843ZM26.0456 4.843L15.8886 15L18.1717 17.2831C20.5319 15.1813 23.8288 14.0877 27.8166 14.1345C28.5207 14.1427 29.2467 14.1871 29.9926 14.2671C29.8272 10.8704 28.511 7.51961 26.0455 4.843H26.0456ZM11.8274 12.7157C9.05044 15.1886 4.97737 16.2663 0.00746829 15.7325C0.17289 19.1293 1.489 22.4802 3.95455 25.157L14.1115 15L11.8274 12.7157V12.7157ZM27.5321 15.3868C23.9549 15.3898 21.1007 16.3842 19.0622 18.1737L26.0455 25.157C28.5594 22.4278 29.8776 18.9975 30 15.5326C29.1432 15.4348 28.3197 15.3863 27.5319 15.3869L27.5321 15.3868ZM15 15.8885L4.84301 26.0455C7.51977 28.5111 10.8706 29.8272 14.2674 29.9926C13.7338 25.0226 14.8114 20.9496 17.2843 18.1727L15 15.8885ZM18.1738 19.0622C15.9903 21.5495 14.9917 25.2523 15.5326 30C18.9976 29.8776 22.4278 28.5594 25.1571 26.0455L18.1738 19.0622Z" />
<defs>
<linearGradient id="paint0_linear_483_44" x1="0" y1="0" x2="31.3045" y2="1.42927" gradientUnits="userSpaceOnUse">
<stop stop-color="#8E2DE2"/>
<stop offset="1" stop-color="#4A00E0"/>
</linearGradient>
</defs>
</svg>
