<svg width="17" height="16" viewBox="0 0 17 16" fill="none" xmlns="http://www.w3.org/2000/svg">
<path d="M11.9326 1.93332C11.3956 1.51065 10.8328 1.06665 10.2599 0.583982C9.9989 0.363236 9.68884 0.19836 9.3516 0.101015C9.01436 0.00367022 8.65817 -0.0237653 8.30824 0.0206486C7.96786 0.0619367 7.6414 0.171991 7.35188 0.343049C7.06237 0.514106 6.81685 0.741998 6.63265 1.01065C5.94978 2.05102 5.4349 3.17854 5.10442 4.35732C4.94749 4.16378 4.74625 4.00491 4.51519 3.89214C4.28414 3.77936 4.029 3.71548 3.76814 3.70509C3.50728 3.69469 3.24717 3.73805 3.00654 3.83204C2.76591 3.92603 2.55072 4.06831 2.37647 4.24865C1.15797 5.40436 0.483284 6.961 0.500333 8.57732C0.484132 10.2177 1.06014 11.8159 2.13665 13.1175C3.21315 14.4192 4.72826 15.3494 6.44072 15.76C7.11198 15.9183 7.80179 15.999 8.49442 16C9.54546 16.0013 10.5865 15.8104 11.5579 15.4382C12.5293 15.066 13.412 14.5198 14.1556 13.8309C14.8991 13.142 15.4889 12.3238 15.8912 11.4233C16.2935 10.5227 16.5004 9.55743 16.5 8.58265C16.5 5.53332 14.3838 3.86665 11.9326 1.93332ZM12.0893 12.8573C11.8836 13.0041 11.6675 13.1377 11.4423 13.2573C11.6486 12.8579 11.7566 12.4209 11.7586 11.978C11.7586 10.6933 10.7932 9.20199 9.60213 7.89465C9.46548 7.74634 9.29579 7.62725 9.10474 7.5456C8.9137 7.46394 8.70585 7.42166 8.49549 7.42166C8.28514 7.42166 8.07729 7.46394 7.88624 7.5456C7.6952 7.62725 7.52551 7.74634 7.38886 7.89465C5.69818 9.73332 4.63934 11.7213 5.62629 13.3333C4.71864 12.8599 3.96451 12.1693 3.44248 11.3337C2.92045 10.498 2.64964 9.54775 2.65825 8.58199C2.63595 7.63613 2.97885 6.71402 3.62508 5.98199C3.72667 6.13665 3.83569 6.28621 3.95214 6.43065C4.14446 6.67148 4.40865 6.85476 4.71207 6.95784C5.01548 7.06092 5.34481 7.07928 5.65936 7.01065C5.97843 6.94467 6.27022 6.79473 6.49972 6.57881C6.72921 6.36289 6.88669 6.09016 6.95325 5.79332C7.21891 4.48486 7.72748 3.2291 8.45632 2.08198C8.47127 2.0592 8.4917 2.03995 8.51602 2.02572C8.54034 2.01149 8.56788 2.00268 8.59649 1.99998C8.63457 1.99538 8.67328 1.99854 8.7099 2.00925C8.74653 2.01996 8.78019 2.03796 8.80854 2.06198C9.40086 2.56132 9.98239 3.01998 10.5373 3.45598C12.8297 5.26132 14.3435 6.45599 14.3435 8.57999C14.3464 9.4057 14.1447 10.221 13.7538 10.9629C13.363 11.7048 12.7934 12.3534 12.0893 12.8587V12.8573Z" fill="#E5E0FB"/>
</svg>
