<svg width="32" height="32" viewBox="0 0 32 32" fill="none" xmlns="http://www.w3.org/2000/svg">
<path d="M24.0007 15.9987C24.0007 16.7346 23.4034 17.3319 22.6674 17.3319C21.9315 17.3319 21.3342 16.7346 21.3342 15.9987C21.3342 15.2627 21.9315 14.6654 22.6674 14.6654C23.4034 14.6654 24.0007 15.2627 24.0007 15.9987ZM9.33522 6.66611C10.0712 6.66611 10.6684 6.07016 10.6684 5.33289C10.6684 3.86234 11.8643 2.66644 13.3349 2.66644C14.8054 2.66644 16.0013 3.86234 16.0013 5.33289C16.0013 6.07016 16.5986 6.66611 17.3346 6.66611C18.0705 6.66611 18.6678 6.07016 18.6678 5.33289C18.6678 2.3918 16.276 0 13.3349 0C10.3938 0 8.002 2.3918 8.002 5.33289C8.002 6.07016 8.59928 6.66611 9.33522 6.66611ZM32 17.3319V19.9983C32 21.4729 31.0027 22.3701 29.9095 22.6034C29.0282 24.8086 27.4137 26.6711 25.3339 27.875V27.9977C25.3339 30.2028 23.5394 31.9973 21.3342 31.9973C19.5957 31.9973 18.1132 30.8828 17.5625 29.3309H14.4388C13.8882 30.8828 12.4056 31.9973 10.6671 31.9973C8.46196 31.9973 6.66744 30.2028 6.66744 27.9977V27.8923C3.1544 25.8672 1.09191 22.0568 1.35722 17.9585C1.44121 16.6546 1.77052 15.416 2.29714 14.2841C0.941255 13.6429 0 12.263 0 10.6658C0 8.46063 1.79452 6.66611 3.99967 6.66611C4.73561 6.66611 5.33289 7.26206 5.33289 7.99933C5.33289 8.7366 4.73561 9.33255 3.99967 9.33255C3.26373 9.33255 2.66644 9.92984 2.66644 10.6658C2.66644 11.3204 3.14107 11.8657 3.76369 11.9777C5.79152 9.5472 8.90059 7.99933 12.3536 7.99933H19.5037C20.481 6.02883 22.3061 4.65028 24.7393 4.07166C25.5272 3.88634 26.3431 4.06766 26.9804 4.57029C27.627 5.08224 27.999 5.84751 27.999 6.67144V11.6244C28.8096 12.5456 29.4575 13.5989 29.9082 14.7268C31.0027 14.9601 32 15.8573 32 17.3319ZM29.3336 17.3319H28.9416C28.3523 17.3319 27.8323 16.9439 27.6644 16.3786C27.2991 15.1521 26.6244 14.0108 25.7139 13.0762C25.4699 12.8269 25.3339 12.4923 25.3339 12.1457V6.67144C24.034 6.98075 22.3141 7.77802 21.6489 9.78452C21.4609 10.3485 20.9116 10.7364 20.329 10.6964C20.2383 10.6924 12.3563 10.6671 12.3563 10.6671C7.95267 10.6671 4.29031 13.9455 4.01966 18.1318C3.80635 21.4235 5.5942 24.4673 8.57528 25.8845C9.04058 26.1058 9.33522 26.5751 9.33522 27.0884V27.999C9.33522 28.7349 9.93384 29.3322 10.6684 29.3322C11.403 29.3322 12.0017 28.7349 12.0017 27.999C12.0017 27.2631 12.5989 26.6658 13.3349 26.6658H18.6678C19.4037 26.6658 20.001 27.2617 20.001 27.999C20.001 28.7363 20.5996 29.3322 21.3342 29.3322C22.0688 29.3322 22.6674 28.7349 22.6674 27.999V27.0737C22.6674 26.5604 22.9621 26.0925 23.426 25.8712C25.4819 24.8899 27.0257 23.0967 27.6644 20.9543C27.8323 20.389 28.3523 20.001 28.9416 20.001H29.3336V17.3346V17.3319Z" fill="#E5E0FB"/>
</svg>
