<svg width="32" height="32" viewBox="0 0 32 32" fill="none" xmlns="http://www.w3.org/2000/svg">
<path d="M16 0C7.1635 0 0 7.1635 0 16C0 24.8366 7.1635 32 16 32C24.8366 32 32 24.8366 32 16C32 7.1635 24.8366 0 16 0ZM29.2325 14.5697L29.2258 14.5644C26.6487 14.2971 24.2068 13.2787 22.2034 11.6356L26.2904 7.54865C27.937 9.55074 28.9599 11.9919 29.2325 14.5697ZM24.4027 5.66487L20.321 9.75855C18.6774 7.75546 17.6589 5.31342 17.3922 2.73609C19.9648 3.00692 22.402 4.02503 24.4027 5.66487ZM14.7349 2.72941C15.0137 6.01596 16.3086 9.13426 18.4399 11.6516L15.9957 14.0958L7.57667 5.67685C9.61627 4.00388 12.1087 2.97765 14.7349 2.72941ZM5.69364 7.56001L5.68759 7.55395L5.69426 7.55926C5.69402 7.55951 5.69383 7.55976 5.69364 7.56001L14.1133 15.9783L11.6677 18.4238C9.15186 16.2916 6.03424 14.9962 2.74819 14.7175C2.99593 12.0918 4.02154 9.59961 5.69364 7.56001ZM2.7588 17.3868V17.3815C5.33613 17.6482 7.77817 18.6667 9.78126 20.3102L5.69426 24.3972C4.05205 22.3973 3.03157 19.9601 2.7588 17.3868ZM7.58197 26.2796L11.6637 22.1927C13.3073 24.1957 14.3257 26.6378 14.5925 29.2151C12.0191 28.9423 9.58195 27.9219 7.58197 26.2796ZM17.2564 29.2271C16.978 25.9405 15.6825 22.8224 13.5501 20.3062L15.9957 17.8607L24.4147 26.2796C22.3754 27.9532 19.8828 28.9795 17.2564 29.2271ZM26.2944 24.3972L17.8781 15.9783L20.3223 13.534C22.8389 15.6648 25.9562 16.9597 29.2418 17.239C28.9936 19.8652 27.9674 22.3576 26.2944 24.3972Z" fill="#6E779A"/>
</svg>
