<svg width="30" height="30" viewBox="0 0 30 30" fill="none" xmlns="http://www.w3.org/2000/svg">
<path d="M1.24941 28.7524C2.71983 30.2223 6.4306 30.3631 10.5878 29.3341L0.66469 19.4109C-0.361693 23.5674 -0.223971 27.2814 1.24941 28.7524Z" />
<path d="M7.22196 7.22287C4.39688 10.0474 2.3364 13.93 1.15686 17.6594L12.339 28.8422C16.0682 27.6623 19.9511 25.6048 22.7774 22.7773C25.6019 19.9522 27.6624 16.0689 28.8425 12.3401L17.6603 1.15796C13.9311 2.3385 10.0464 4.39896 7.22196 7.22287ZM21.9695 12.0371C22.2787 12.3455 22.2787 12.8493 21.9683 13.1577C21.8151 13.3139 21.6103 13.39 21.4079 13.39C21.2043 13.39 21.0024 13.3139 20.8475 13.1577L19.475 11.7846L18.3934 12.8642L19.7659 14.2396C20.0776 14.5479 20.0776 15.0518 19.7659 15.3601C19.6128 15.517 19.4097 15.5936 19.2061 15.5936C19.0025 15.5936 18.8013 15.5176 18.6463 15.3601L17.2733 13.9877L16.1923 15.0666L17.5647 16.442C17.8764 16.7522 17.8764 17.2542 17.5647 17.5638C17.4116 17.72 17.2074 17.7979 17.0038 17.7979C16.8002 17.7979 16.5989 17.7206 16.4434 17.5638L15.0709 16.1901L13.9887 17.2697L15.3618 18.6445C15.6729 18.954 15.6729 19.4567 15.3618 19.7668C15.208 19.9237 15.0032 20.0003 14.8014 20.0003C14.6002 20.0003 14.3966 19.9243 14.2398 19.7668L12.868 18.3926L12.0933 19.1673C11.9793 19.279 11.8386 19.3527 11.6932 19.3806L13.1612 20.8487C13.4705 21.1583 13.4705 21.6609 13.1612 21.971C13.0057 22.1255 12.8015 22.204 12.5979 22.204C12.3966 22.204 12.193 22.1255 12.0375 21.971L8.03226 17.9666C7.72298 17.6553 7.72298 17.1514 8.03226 16.8413C8.34154 16.5318 8.84375 16.5318 9.15363 16.8413L10.754 18.4419C10.7825 18.2963 10.8562 18.1561 10.9701 18.045L11.7448 17.2703L10.2352 15.7606C9.92534 15.4504 9.92534 14.9484 10.2352 14.6383C10.5451 14.3299 11.0467 14.3299 11.356 14.6383L12.8668 16.1491L13.946 15.0666L12.4376 13.5581C12.1253 13.2492 12.1253 12.7471 12.4376 12.4346C12.7475 12.1257 13.2497 12.1257 13.5589 12.4346L15.0691 13.9455L16.1483 12.8636L14.6399 11.3551C14.3313 11.0437 14.3313 10.5411 14.6399 10.2316C14.9498 9.92143 15.452 9.92143 15.7619 10.2316L17.2691 11.7413L18.3507 10.6605L16.8435 9.15203C16.5312 8.84189 16.5312 8.33984 16.8435 8.03149C17.1528 7.71897 17.655 7.71897 17.9654 8.03149L21.9695 12.0371Z" />
<path d="M28.7522 1.24762C27.2788 -0.222864 23.5687 -0.362486 19.4109 0.665365L29.3346 10.5898C30.3627 6.42846 30.2226 2.71928 28.7522 1.24762Z" />
<defs>
<linearGradient id="paint0_linear_483_31" x1="0" y1="19.4109" x2="11.0482" y2="19.9153" gradientUnits="userSpaceOnUse">
<stop stop-color="#8E2DE2"/>
<stop offset="1" stop-color="#4A00E0"/>
</linearGradient>
<linearGradient id="paint1_linear_483_31" x1="1.15686" y1="1.15796" x2="30.0463" y2="2.47703" gradientUnits="userSpaceOnUse">
<stop stop-color="#8E2DE2"/>
<stop offset="1" stop-color="#4A00E0"/>
</linearGradient>
<linearGradient id="paint2_linear_483_31" x1="19.4109" y1="0" x2="30.4604" y2="0.50446" gradientUnits="userSpaceOnUse">
<stop stop-color="#8E2DE2"/>
<stop offset="1" stop-color="#4A00E0"/>
</linearGradient>
</defs>
</svg>
