<svg width="30" height="30" viewBox="0 0 30 30" fill="none" xmlns="http://www.w3.org/2000/svg">
<path fill-rule="evenodd" clip-rule="evenodd" d="M15 30C23.2843 30 30 23.2843 30 15C30 6.71573 23.2843 0 15 0C6.71573 0 0 6.71573 0 15C0 23.2843 6.71573 30 15 30ZM25.0714 19.6071C25.0714 20.4947 24.3519 21.2143 23.4643 21.2143C22.5767 21.2143 21.8571 20.4947 21.8571 19.6071C21.8571 18.7195 22.5767 18 23.4643 18C24.3519 18 25.0714 18.7195 25.0714 19.6071ZM17.2143 24.25C17.2143 25.1376 16.4947 25.8571 15.6071 25.8571C14.7195 25.8571 14 25.1376 14 24.25C14 23.3624 14.7195 22.6429 15.6071 22.6429C16.4947 22.6429 17.2143 23.3624 17.2143 24.25ZM19.5357 23C20.4233 23 21.1429 22.2805 21.1429 21.3929C21.1429 20.5053 20.4233 19.7857 19.5357 19.7857C18.6481 19.7857 17.9286 20.5053 17.9286 21.3929C17.9286 22.2805 18.6481 23 19.5357 23ZM25.0714 23.8929C25.0714 24.7805 24.3519 25.5 23.4643 25.5C22.5767 25.5 21.8571 24.7805 21.8571 23.8929C21.8571 23.0053 22.5767 22.2857 23.4643 22.2857C24.3519 22.2857 25.0714 23.0053 25.0714 23.8929ZM19.5357 27.6429C20.4233 27.6429 21.1429 26.9233 21.1429 26.0357C21.1429 25.1481 20.4233 24.4286 19.5357 24.4286C18.6481 24.4286 17.9286 25.1481 17.9286 26.0357C17.9286 26.9233 18.6481 27.6429 19.5357 27.6429Z" fill="white"/>
</svg>
