<svg width="32" height="32" viewBox="0 0 32 32" fill="none" xmlns="http://www.w3.org/2000/svg">
<path d="M25.46 12.7293C24.7653 12.1267 24.1107 11.5587 23.6093 11.0573C23.348 10.796 23.0147 10.6427 22.6187 10.668C22.2493 10.6813 21.9013 10.848 21.6587 11.128C20.2173 12.792 19.6893 15.0133 19.2653 16.7987C19.1453 17.3027 18.9973 17.9307 18.8507 18.3627C18.752 18.0933 18.6693 17.6973 18.6653 17.3333C18.6653 16.7907 18.336 16.3013 17.8333 16.0973C17.332 15.8947 16.7533 16.0147 16.3747 16.404C14.8693 17.956 13.332 19.912 13.332 22.6653C13.332 27.812 17.52 31.9987 22.6653 31.9987C27.8107 31.9987 31.9987 27.812 31.9987 22.6653C31.9987 18.4053 28.2187 15.124 25.4587 12.728L25.46 12.7293ZM21.2533 28.7947C20.876 28.4173 20.668 27.9147 20.668 27.3813C20.668 26.848 20.876 26.3453 21.2533 25.9667L22.668 24.552L24.0827 25.9667C24.46 26.3453 24.668 26.8467 24.668 27.3813C24.668 27.916 24.46 28.4173 24.0827 28.796C23.8227 29.056 23.54 29.3347 22.668 29.3347C21.796 29.3347 21.5133 29.056 21.2533 28.796V28.7947ZM27.3333 27.4227V27.38C27.3333 26.1333 26.848 24.9613 25.9667 24.08L23.6093 21.7227C23.088 21.2013 22.2453 21.2013 21.724 21.7227L19.3667 24.08C18.4853 24.9613 18 26.1333 18 27.38V27.4227C16.7667 26.212 16 24.5267 16 22.6667C16 21.72 16.2853 20.9 16.776 20.1133C17.276 20.8413 18.0253 21.3333 19.0427 21.3333C20.928 21.3333 21.4027 19.3413 21.86 17.4147C22.124 16.3013 22.4133 15.0813 22.916 14.0493C23.172 14.276 23.44 14.5067 23.712 14.7427C26.216 16.9173 29.3333 19.6227 29.3333 22.6667C29.3333 24.528 28.5667 26.212 27.3333 27.4227ZM32 6.66667V12C32 12.736 31.404 13.3333 30.6667 13.3333C29.9293 13.3333 29.3333 12.736 29.3333 12V6.66667C29.3333 4.46133 27.5387 2.66667 25.3333 2.66667H6.66667C4.46133 2.66667 2.66667 4.46133 2.66667 6.66667V25.3333C2.66667 27.5387 4.46133 29.3333 6.66667 29.3333H12C12.7373 29.3333 13.3333 29.9307 13.3333 30.6667C13.3333 31.4027 12.7373 32 12 32H6.66667C2.99067 32 0 29.0093 0 25.3333V6.66667C0 2.99067 2.99067 0 6.66667 0H25.3333C29.0093 0 32 2.99067 32 6.66667ZM6.66667 5.33333C7.40267 5.33333 8 5.93067 8 6.66667C8 7.40267 7.40267 8 6.66667 8C5.93067 8 5.33333 7.40267 5.33333 6.66667C5.33333 5.93067 5.93067 5.33333 6.66667 5.33333ZM13.3333 6.66667C13.3333 7.40267 12.736 8 12 8C11.264 8 10.6667 7.40267 10.6667 6.66667C10.6667 5.93067 11.264 5.33333 12 5.33333C12.736 5.33333 13.3333 5.93067 13.3333 6.66667Z" fill="#E5E0FB"/>
</svg>
