<svg width="38" height="38" viewBox="0 0 38 38" fill="none" xmlns="http://www.w3.org/2000/svg">
<path d="M37.4701 27.2157C37.2076 24.5694 35.199 22.6511 32.6872 22.6511C31.1108 22.6511 29.7878 23.5889 28.9476 24.7305C28.1082 23.5889 26.7845 22.6511 25.2081 22.6511C22.6962 22.6511 20.6877 24.5687 20.4245 27.215C20.3969 27.3885 20.3291 28.0046 20.5732 28.9682C20.9318 30.3901 21.7574 31.6805 22.962 32.7031L28.4417 37.3149C28.5878 37.4378 28.7667 37.4999 28.947 37.4999C29.1253 37.4999 29.3055 37.4385 29.4536 37.3161L34.9345 32.7018C36.1372 31.6825 36.9629 30.3914 37.3221 28.9689C37.5648 28.0039 37.4977 27.3878 37.4701 27.2157ZM36.0444 28.6563C35.7517 29.8173 35.0714 30.8774 34.0773 31.7187L28.9483 36.0367L23.8199 31.72C22.8239 30.8754 22.143 29.8167 21.8508 28.6556C21.6522 27.8706 21.7232 27.4279 21.7232 27.4279L21.7337 27.36C21.8943 25.6631 23.1397 23.9455 25.2081 23.9455C26.6483 23.9455 27.8226 25.1175 28.3463 26.2785L28.9476 27.6124L29.549 26.2785C30.0727 25.1169 31.2463 23.9455 32.6872 23.9455C34.7563 23.9455 36.001 25.6631 36.1707 27.4189C36.1721 27.4234 36.2444 27.8661 36.0444 28.6563Z" fill="#656565"/>
<path d="M18.0923 34.3004C17.6752 34.3004 17.2594 34.2803 16.8456 34.2499C16.7739 34.2447 16.7022 34.2402 16.6311 34.2337C16.214 34.1975 15.7989 34.1489 15.3877 34.0829C15.3693 34.0797 15.3508 34.0764 15.3324 34.0732C14.4627 33.9302 13.6067 33.7198 12.7732 33.4448C12.7475 33.4364 12.7212 33.428 12.6955 33.4189C12.2817 33.2804 11.8725 33.1277 11.4705 32.9575C11.4679 32.9562 11.4646 32.9549 11.462 32.9536C11.0817 32.7924 10.7087 32.6138 10.3403 32.4255C10.2922 32.4009 10.2435 32.3776 10.1962 32.3524C9.85998 32.1757 9.53103 31.9848 9.20669 31.7854C9.11063 31.7259 9.01524 31.6657 8.9205 31.6049C8.62181 31.4127 8.32707 31.2127 8.04022 31.0011C8.01062 30.979 7.98233 30.9557 7.95272 30.9337C7.97378 30.9221 7.99483 30.9104 8.01588 30.8988L13.2179 28.1075C14.1127 27.6273 14.6686 26.7064 14.6686 25.7039L14.6679 23.3728L14.5166 23.1929C14.5021 23.1767 13.0798 21.4746 12.5423 19.17L12.4824 18.9137L12.258 18.7707C11.9416 18.5694 11.7521 18.2329 11.7521 17.8698V15.5756C11.7521 15.2747 11.8817 14.9944 12.1186 14.7841L12.3357 14.5912V10.9865L12.3297 10.9017C12.3278 10.8862 12.1337 9.3297 13.2482 8.08C14.1995 7.01345 15.8298 6.47177 18.0923 6.47177C20.3463 6.47177 21.9713 7.00892 22.9253 8.0677C24.0384 9.30446 23.8562 10.89 23.8549 10.903L23.849 14.5925L24.0661 14.7854C24.3023 14.9951 24.4325 15.276 24.4325 15.5769V17.8711C24.4325 18.3326 24.1134 18.7513 23.6555 18.8904C23.3088 18.9953 23.1141 19.3583 23.2213 19.6994C23.3279 20.0405 23.695 20.2307 24.0437 20.1265C25.0634 19.8172 25.7483 18.9105 25.7483 17.8711V15.5769C25.7483 15.0158 25.5391 14.4715 25.1648 14.0437V11.0234C25.199 10.6868 25.32 8.79189 23.9259 7.22831C22.7134 5.86666 20.7509 5.17741 18.0923 5.17741C15.4337 5.17741 13.4712 5.86666 12.2587 7.22767C10.8646 8.79125 10.9857 10.6875 11.0199 11.0227V14.0431C10.6462 14.4709 10.4363 15.0151 10.4363 15.5762V17.8705C10.4363 18.583 10.7613 19.2477 11.3179 19.6962C11.8508 21.7497 12.9475 23.3042 13.3528 23.831V25.7039C13.3528 26.232 13.06 26.7174 12.5883 26.9711L7.38627 29.7624C7.22048 29.851 7.056 29.9546 6.89153 30.0704C3.47109 27.0468 1.3158 22.6654 1.3158 17.7974C1.3158 8.69741 8.84155 1.29435 18.0923 1.29435C27.3431 1.29435 34.8688 8.69741 34.8688 17.7974C34.8688 18.1552 35.1629 18.4445 35.5267 18.4445C35.8905 18.4445 36.1846 18.1552 36.1846 17.7974C36.1846 7.98422 28.0681 0 18.0923 0C8.11654 0 0 7.98422 0 17.7974C0 22.9806 2.26582 27.6526 5.87244 30.9079L5.85533 30.9227L6.44218 31.4094C6.48034 31.4411 6.52179 31.467 6.55994 31.4981C6.87179 31.7524 7.19482 31.9938 7.52377 32.2275C7.63035 32.3032 7.73693 32.3795 7.84549 32.4527C8.19681 32.6908 8.55734 32.9167 8.92576 33.1309C9.00603 33.1775 9.08695 33.2228 9.16787 33.2681C9.57116 33.494 9.98301 33.7069 10.4047 33.9023C10.4356 33.9166 10.4672 33.9295 10.4981 33.9438C11.8725 34.5722 13.3396 35.0336 14.8739 35.3061C14.914 35.3132 14.9541 35.3203 14.9949 35.3274C15.4712 35.4083 15.9528 35.473 16.4403 35.5164C16.4995 35.5216 16.5587 35.5248 16.6186 35.53C17.1041 35.5695 17.5949 35.5947 18.0923 35.5947C18.4561 35.5947 18.7502 35.3054 18.7502 34.9475C18.7502 34.5896 18.4561 34.3004 18.0923 34.3004Z" fill="#656565"/>
</svg>
