<svg width="30" height="30" viewBox="0 0 30 30" fill="none" xmlns="http://www.w3.org/2000/svg">
<path d="M29.3489 13.5955C29.9395 12.9948 30.1479 12.1132 29.8932 11.2937C29.6379 10.4742 28.9729 9.88923 28.1559 9.76508L20.8921 8.66342C20.5827 8.61639 20.3154 8.41387 20.1773 8.12105L16.9298 1.25152C16.5652 0.479664 15.8251 0 15.0003 0C14.1761 0 13.436 0.479664 13.0714 1.25152L9.82335 8.12168C9.68518 8.4145 9.41727 8.61702 9.1079 8.66405L1.84407 9.76571C1.0277 9.88923 0.362106 10.4749 0.106802 11.2944C-0.1479 12.1139 0.0605474 12.9954 0.651049 13.5961L5.90669 18.9433C6.13076 19.1715 6.23348 19.5001 6.18062 19.8211L4.94075 27.3716C4.83082 28.0362 4.99781 28.6826 5.4099 29.1924C6.05026 29.9868 7.16819 30.2289 8.06206 29.7385L14.5582 26.1733C14.8297 26.0247 15.1715 26.026 15.4424 26.1733L21.9391 29.7385C22.2551 29.9122 22.5921 30 22.9399 30C23.5749 30 24.1768 29.7053 24.5907 29.1924C25.0034 28.6826 25.1698 28.0349 25.0599 27.3716L23.8194 19.8211C23.7665 19.4994 23.8692 19.1715 24.0933 18.9433L29.3489 13.5955Z" />
<defs>
<linearGradient id="paint0_linear_483_25" x1="0" y1="0" x2="31.3045" y2="1.42927" gradientUnits="userSpaceOnUse">
<stop stop-color="#8E2DE2"/>
<stop offset="1" stop-color="#4A00E0"/>
</linearGradient>
</defs>
</svg>
