<svg width="30" height="30" viewBox="0 0 30 30" fill="none" xmlns="http://www.w3.org/2000/svg">
<path d="M13.592 0.0578613C10.236 0.370819 6.9598 1.81541 4.38504 4.3887C1.81028 6.96126 0.367157 10.2374 0.0549316 13.5979C3.74007 14.0252 7.65827 15.9088 10.8751 19.1256C14.0933 22.3431 15.9791 26.2643 16.4028 29.9465C19.7684 29.6342 23.0365 28.1904 25.6134 25.6185C28.1874 23.0467 29.6291 19.7691 29.9399 16.4094C26.2635 15.9828 22.3387 14.0992 19.1219 10.8817C15.9073 7.66487 14.0215 3.743 13.592 0.0578613Z" fill="url(#paint0_linear_483_38)"/>
<path d="M30 14.5485C29.8908 10.8583 28.4308 7.20243 25.6178 4.38581C22.8034 1.56919 19.1432 0.114336 15.4529 0C15.8678 3.22266 17.5791 6.68572 20.4478 9.55512C23.3165 12.4245 26.7751 14.133 30 14.5485Z" fill="url(#paint1_linear_483_38)"/>
<path d="M0 15.4573C0.108473 19.1461 1.56919 22.8026 4.38508 25.6178C7.19877 28.4315 10.8546 29.8937 14.5441 30.0007C14.1293 26.7824 12.4201 23.3215 9.54998 20.4521C6.68279 17.5842 3.22046 15.875 0 15.4573Z" fill="url(#paint2_linear_483_38)"/>
<defs>
<linearGradient id="paint0_linear_483_38" x1="0.0549316" y1="0.0578613" x2="31.2393" y2="1.48148" gradientUnits="userSpaceOnUse">
<stop stop-color="#8E2DE2"/>
<stop offset="1" stop-color="#4A00E0"/>
</linearGradient>
<linearGradient id="paint1_linear_483_38" x1="15.4529" y1="0" x2="30.6325" y2="0.692986" gradientUnits="userSpaceOnUse">
<stop stop-color="#8E2DE2"/>
<stop offset="1" stop-color="#4A00E0"/>
</linearGradient>
<linearGradient id="paint2_linear_483_38" x1="0" y1="15.4573" x2="15.1765" y2="16.1502" gradientUnits="userSpaceOnUse">
<stop stop-color="#8E2DE2"/>
<stop offset="1" stop-color="#4A00E0"/>
</linearGradient>
</defs>
</svg>
